<?xml version="1.0" encoding="utf-8"?>
<!-- Generator: Adobe Illustrator 19.2.1, SVG Export Plug-In . SVG Version: 6.00 Build 0)  -->
<svg version="1.1" id="Capa_1" xmlns="http://www.w3.org/2000/svg" xmlns:xlink="http://www.w3.org/1999/xlink" x="0px" y="0px"
	 viewBox="0 0 507.3 507.3" style="enable-background:new 0 0 507.3 507.3;" xml:space="preserve">
<style type="text/css">
	.st0{fill:#C0C0C0;}
</style>
<g>
	<g>
		<g>
			<path class="st0" d="M301.7,75.3c0-26.5-21.5-48-48-48s-48,21.5-48,48v160c-44.2,0.1-79.9,35.8-80,80v85.6l64,80v26.4h32v-37.6
				l-64-80v-74.4c0-26.5,21.5-48,48-48v112h32v-304c0-8.8,7.2-16,16-16s16,7.2,16,16v140.2l52.3,14.3l8.4-30.9l-28.8-7.8L301.7,75.3
				z"/>
			
				<rect x="356.5" y="211.1" transform="matrix(0.2629 -0.9648 0.9648 0.2629 55.4662 526.7643)" class="st0" width="32" height="32"/>
			<polygon class="st0" points="414.6,255.1 445.7,263.5 445.7,406 397.7,470 397.7,507.3 429.7,507.3 429.7,480.6 477.7,416.6 
				477.7,239.1 423,224.2 			"/>
			<polygon class="st0" points="89,22.6 66.3,0 7,59.3 66.3,118.6 89,96 68.3,75.3 109.7,75.3 109.7,43.3 68.3,43.3 			"/>
			<rect x="141.7" y="43.3" class="st0" width="32" height="32"/>
			<polygon class="st0" points="418.3,96 441,118.6 500.3,59.3 441,0 418.3,22.6 439,43.3 397.7,43.3 397.7,75.3 439,75.3 			"/>
			<rect x="333.7" y="43.3" class="st0" width="32" height="32"/>
		</g>
	</g>
</g>
</svg>
